<?xml version="1.0" encoding="UTF-8"?>
<!DOCTYPE svg PUBLIC "-//W3C//DTD SVG 1.1//EN" "http://www.w3.org/Graphics/SVG/1.1/DTD/svg11.dtd">
<!-- Creator: CorelDRAW -->
<svg xmlns="http://www.w3.org/2000/svg" xml:space="preserve" width="12.7mm" height="12.7mm" version="1.1" style="shape-rendering:geometricPrecision; text-rendering:geometricPrecision; image-rendering:optimizeQuality; fill-rule:evenodd; clip-rule:evenodd"
viewBox="0 0 1270 1270"
 xmlns:xlink="http://www.w3.org/1999/xlink"
 xmlns:xodm="http://www.corel.com/coreldraw/odm/2003">
 <defs>
  <style type="text/css">
   <![CDATA[
    .fil1 {fill:#E2E2E2;fill-opacity:0.980392}
    .fil0 {fill:#3B3B47;fill-opacity:0.988235}
   ]]>
  </style>
 </defs>
 <g id="Capa_x0020_2">
  <metadata id="CorelCorpID_0Corel-Layer"/>
  <polygon class="fil0" points="373.23,486.31 269.61,426.86 634.11,216.87 738.45,275.92 "/>
  <polygon class="fil0" points="531.93,995.77 635.97,1054.98 1002.47,843.84 898.11,784.82 "/>
  <polygon class="fil0" points="816.02,531.88 712.72,591.69 895.41,695.44 999.56,636.11 "/>
  <polygon class="fil0" points="871.79,918.95 1001.94,845.29 1001.94,637.15 871.79,637.15 "/>
  <polygon class="fil0" points="997.73,419.96 887.64,482.05 528.07,277.83 636.85,215.02 "/>
  <polygon class="fil0" points="738.73,994.13 634.59,1053.47 267.54,845.02 371.8,785.75 "/>
  <polygon class="fil0" points="299.46,409.49 268.89,427.04 268.89,843.97 371.97,903.44 371.97,461.89 "/>
 </g>
 <g id="Capa_x0020_3">
  <metadata id="CorelCorpID_1Corel-Layer"/>
  <polygon class="fil1" points="307.76,449.15 178.23,374.83 633.88,112.36 764.31,186.16 "/>
  <polygon class="fil1" points="506.15,1085.95 636.21,1159.96 1094.35,896.04 963.9,822.27 "/>
  <polygon class="fil1" points="731.13,580.28 860.91,505.88 1090.71,636.38 960.53,710.55 "/>
  <polygon class="fil1" points="931,989.94 1093.69,897.86 1093.69,637.69 931,637.69 "/>
  <polygon class="fil1" points="501.32,188.57 637.32,110.04 1090.71,367.51 953.8,445.52 "/>
  <polygon class="fil1" points="764.66,1083.9 634.48,1158.08 175.65,897.52 305.98,823.43 "/>
  <polygon class="fil1" points="215.55,353.12 177.33,375.06 177.33,896.21 306.19,970.54 306.19,418.62 "/>
 </g>
</svg>
